# xmcd
#
# Track frame offsets:
#	150
#	16998
#	34845
#	59467
#	75244
#	89912
#	106836
#	123933
#	136617
#	152331
#	171426
#	187245
#	199219
#
# Disc length: 2857 seconds
#
# Revision: 1
# Processed by: cddbd v1.5.1PL2 Copyright (c) Steve Scherf et al.
# Submitted via: audiograbber 1.83.01
#
DISCID=a70b270d
DTITLE=Mistrinanka - Melodie za volant - II
DYEAR=2002
DGENRE=Volksmusik
TTITLE0=Moravenka
TTITLE1=Bystrocicka
TTITLE2=Vypichnuta
TTITLE3=Kolinanka
TTITLE4=Jesus Christ Superstar
TTITLE5=Budvarska
TTITLE6=ES-AS
TTITLE7=Tico - Tico
TTITLE8=U Trebone
TTITLE9=Seerosenwalzer
TTITLE10=Penzistum
TTITLE11=Arrival
TTITLE12=Lucerna
EXTD=
EXTT0=
EXTT1=
EXTT2=
EXTT3=
EXTT4=
EXTT5=
EXTT6=
EXTT7=
EXTT8=
EXTT9=
EXTT10=
EXTT11=
EXTT12=
PLAYORDER=
